{
    "asset" : {
        "generator" : "Khronos glTF Blender I/O v0.9.36",
        "version" : "2.0"
    },
    "scene" : 0,
    "scenes" : [
        {
            "name" : "Scene",
            "nodes" : [
                10
            ]
        }
    ],
    "nodes" : [
        {
            "name" : "joint9",
            "rotation" : [
                0,
                0.7071068286895752,
                0,
                0.7071067690849304
            ],
            "translation" : [
                6,
                0,
                -2.6226831550957286e-07
            ]
        },
        {
            "children" : [
                0
            ],
            "name" : "joint8",
            "translation" : [
                3,
                -2.384185791015625e-07,
                -1.3113424301991472e-07
            ]
        },
        {
            "children" : [
                1
            ],
            "name" : "joint7",
            "translation" : [
                2.7684433460235596,
                2.384185791015625e-07,
                -1.210124764838838e-07
            ]
        },
        {
            "children" : [
                2
            ],
            "name" : "joint6",
            "translation" : [
                3.2315566539764404,
                0,
                -1.4125583902568906e-07
            ]
        },
        {
            "children" : [
                3
            ],
            "name" : "joint5",
            "translation" : [
                2.4500532150268555,
                0,
                -1.0709527487051673e-07
            ]
        },
        {
            "children" : [
                4
            ],
            "name" : "joint4",
            "translation" : [
                2.83939266204834,
                0,
                -1.2411379657351063e-07
            ]
        },
        {
            "children" : [
                5
            ],
            "name" : "joint3",
            "translation" : [
                2.710554361343384,
                2.384185791015625e-07,
                -1.1848207748244022e-07
            ]
        },
        {
            "children" : [
                6
            ],
            "name" : "joint2",
            "translation" : [
                3,
                -4.76837158203125e-07,
                -1.3113415775478643e-07
            ]
        },
        {
            "children" : [
                7
            ],
            "name" : "joint1",
            "rotation" : [
                0.7071068286895752,
                -1.6594416507587084e-08,
                -0.7071068286895752,
                7.84116522822842e-08
            ],
            "scale" : [
                0.9999999403953552,
                1,
                1
            ]
        },
        {
            "mesh" : 0,
            "name" : "falito",
            "skin" : 0
        },
        {
            "children" : [
                9,
                8
            ],
            "name" : "Armature",
            "rotation" : [
                0.7071067690849304,
                0,
                0,
                0.7071067690849304
            ],
            "scale" : [
                0.009999999776482582,
                0.009999999776482582,
                0.009999999776482582
            ]
        }
    ],
    "animations" : [
        {
            "channels" : [
                {
                    "sampler" : 0,
                    "target" : {
                        "node" : 8,
                        "path" : "translation"
                    }
                },
                {
                    "sampler" : 1,
                    "target" : {
                        "node" : 8,
                        "path" : "rotation"
                    }
                },
                {
                    "sampler" : 2,
                    "target" : {
                        "node" : 8,
                        "path" : "scale"
                    }
                },
                {
                    "sampler" : 3,
                    "target" : {
                        "node" : 7,
                        "path" : "translation"
                    }
                },
                {
                    "sampler" : 4,
                    "target" : {
                        "node" : 7,
                        "path" : "rotation"
                    }
                },
                {
                    "sampler" : 5,
                    "target" : {
                        "node" : 7,
                        "path" : "scale"
                    }
                },
                {
                    "sampler" : 6,
                    "target" : {
                        "node" : 6,
                        "path" : "translation"
                    }
                },
                {
                    "sampler" : 7,
                    "target" : {
                        "node" : 6,
                        "path" : "rotation"
                    }
                },
                {
                    "sampler" : 8,
                    "target" : {
                        "node" : 6,
                        "path" : "scale"
                    }
                },
                {
                    "sampler" : 9,
                    "target" : {
                        "node" : 5,
                        "path" : "translation"
                    }
                },
                {
                    "sampler" : 10,
                    "target" : {
                        "node" : 5,
                        "path" : "rotation"
                    }
                },
                {
                    "sampler" : 11,
                    "target" : {
                        "node" : 5,
                        "path" : "scale"
                    }
                },
                {
                    "sampler" : 12,
                    "target" : {
                        "node" : 4,
                        "path" : "translation"
                    }
                },
                {
                    "sampler" : 13,
                    "target" : {
                        "node" : 4,
                        "path" : "rotation"
                    }
                },
                {
                    "sampler" : 14,
                    "target" : {
                        "node" : 4,
                        "path" : "scale"
                    }
                },
                {
                    "sampler" : 15,
                    "target" : {
                        "node" : 3,
                        "path" : "translation"
                    }
                },
                {
                    "sampler" : 16,
                    "target" : {
                        "node" : 3,
                        "path" : "rotation"
                    }
                },
                {
                    "sampler" : 17,
                    "target" : {
                        "node" : 3,
                        "path" : "scale"
                    }
                },
                {
                    "sampler" : 18,
                    "target" : {
                        "node" : 2,
                        "path" : "translation"
                    }
                },
                {
                    "sampler" : 19,
                    "target" : {
                        "node" : 2,
                        "path" : "rotation"
                    }
                },
                {
                    "sampler" : 20,
                    "target" : {
                        "node" : 2,
                        "path" : "scale"
                    }
                },
                {
                    "sampler" : 21,
                    "target" : {
                        "node" : 1,
                        "path" : "translation"
                    }
                },
                {
                    "sampler" : 22,
                    "target" : {
                        "node" : 1,
                        "path" : "rotation"
                    }
                },
                {
                    "sampler" : 23,
                    "target" : {
                        "node" : 1,
                        "path" : "scale"
                    }
                },
                {
                    "sampler" : 24,
                    "target" : {
                        "node" : 0,
                        "path" : "translation"
                    }
                },
                {
                    "sampler" : 25,
                    "target" : {
                        "node" : 0,
                        "path" : "rotation"
                    }
                },
                {
                    "sampler" : 26,
                    "target" : {
                        "node" : 0,
                        "path" : "scale"
                    }
                }
            ],
            "name" : "Armature|Take 001|BaseLayer",
            "samplers" : [
                {
                    "input" : 7,
                    "interpolation" : "LINEAR",
                    "output" : 8
                },
                {
                    "input" : 7,
                    "interpolation" : "LINEAR",
                    "output" : 9
                },
                {
                    "input" : 7,
                    "interpolation" : "LINEAR",
                    "output" : 10
                },
                {
                    "input" : 7,
                    "interpolation" : "LINEAR",
                    "output" : 11
                },
                {
                    "input" : 7,
                    "interpolation" : "LINEAR",
                    "output" : 12
                },
                {
                    "input" : 7,
                    "interpolation" : "LINEAR",
                    "output" : 13
                },
                {
                    "input" : 7,
                    "interpolation" : "LINEAR",
                    "output" : 14
                },
                {
                    "input" : 7,
                    "interpolation" : "LINEAR",
                    "output" : 15
                },
                {
                    "input" : 7,
                    "interpolation" : "LINEAR",
                    "output" : 16
                },
                {
                    "input" : 7,
                    "interpolation" : "LINEAR",
                    "output" : 17
                },
                {
                    "input" : 7,
                    "interpolation" : "LINEAR",
                    "output" : 18
                },
                {
                    "input" : 7,
                    "interpolation" : "LINEAR",
                    "output" : 19
                },
                {
                    "input" : 7,
                    "interpolation" : "LINEAR",
                    "output" : 20
                },
                {
                    "input" : 7,
                    "interpolation" : "LINEAR",
                    "output" : 21
                },
                {
                    "input" : 7,
                    "interpolation" : "LINEAR",
                    "output" : 22
                },
                {
                    "input" : 7,
                    "interpolation" : "LINEAR",
                    "output" : 23
                },
                {
                    "input" : 7,
                    "interpolation" : "LINEAR",
                    "output" : 24
                },
                {
                    "input" : 7,
                    "interpolation" : "LINEAR",
                    "output" : 25
                },
                {
                    "input" : 7,
                    "interpolation" : "LINEAR",
                    "output" : 26
                },
                {
                    "input" : 7,
                    "interpolation" : "LINEAR",
                    "output" : 27
                },
                {
                    "input" : 7,
                    "interpolation" : "LINEAR",
                    "output" : 28
                },
                {
                    "input" : 7,
                    "interpolation" : "LINEAR",
                    "output" : 29
                },
                {
                    "input" : 7,
                    "interpolation" : "LINEAR",
                    "output" : 30
                },
                {
                    "input" : 7,
                    "interpolation" : "LINEAR",
                    "output" : 31
                },
                {
                    "input" : 7,
                    "interpolation" : "LINEAR",
                    "output" : 32
                },
                {
                    "input" : 7,
                    "interpolation" : "LINEAR",
                    "output" : 33
                },
                {
                    "input" : 7,
                    "interpolation" : "LINEAR",
                    "output" : 34
                }
            ]
        }
    ],
    "materials" : [
        {
            "doubleSided" : true,
            "name" : "bodyColor",
            "pbrMetallicRoughness" : {
                "baseColorFactor" : [
                    0.0717010647058487,
                    0.49999991059303284,
                    0.25419512391090393,
                    1
                ],
                "metallicFactor" : 0,
                "roughnessFactor" : 0.5527864098548889
            }
        }
    ],
    "meshes" : [
        {
            "name" : "Mesh",
            "primitives" : [
                {
                    "attributes" : {
                        "POSITION" : 0,
                        "NORMAL" : 1,
                        "TEXCOORD_0" : 2,
                        "JOINTS_0" : 3,
                        "WEIGHTS_0" : 4
                    },
                    "indices" : 5,
                    "material" : 0
                }
            ]
        }
    ],
    "skins" : [
        {
            "inverseBindMatrices" : 6,
            "joints" : [
                8,
                7,
                6,
                5,
                4,
                3,
                2,
                1,
                0
            ],
            "name" : "Armature"
        }
    ],
    "accessors" : [
        {
            "bufferView" : 0,
            "componentType" : 5126,
            "count" : 511,
            "max" : [
                4.987624645233154,
                30.984439849853516,
                4.9876251220703125
            ],
            "min" : [
                -4.987625598907471,
                -9.5367431640625e-07,
                -4.987627029418945
            ],
            "type" : "VEC3"
        },
        {
            "bufferView" : 1,
            "componentType" : 5126,
            "count" : 511,
            "type" : "VEC3"
        },
        {
            "bufferView" : 2,
            "componentType" : 5126,
            "count" : 511,
            "type" : "VEC2"
        },
        {
            "bufferView" : 3,
            "componentType" : 5123,
            "count" : 511,
            "type" : "VEC4"
        },
        {
            "bufferView" : 4,
            "componentType" : 5126,
            "count" : 511,
            "type" : "VEC4"
        },
        {
            "bufferView" : 5,
            "componentType" : 5123,
            "count" : 2460,
            "type" : "SCALAR"
        },
        {
            "bufferView" : 6,
            "componentType" : 5126,
            "count" : 9,
            "type" : "MAT4"
        },
        {
            "bufferView" : 7,
            "componentType" : 5126,
            "count" : 30,
            "max" : [
                1.0333333333333334
            ],
            "min" : [
                0.06666666666666667
            ],
            "type" : "SCALAR"
        },
        {
            "bufferView" : 8,
            "componentType" : 5126,
            "count" : 30,
            "type" : "VEC3"
        },
        {
            "bufferView" : 9,
            "componentType" : 5126,
            "count" : 30,
            "type" : "VEC4"
        },
        {
            "bufferView" : 10,
            "componentType" : 5126,
            "count" : 30,
            "type" : "VEC3"
        },
        {
            "bufferView" : 11,
            "componentType" : 5126,
            "count" : 30,
            "type" : "VEC3"
        },
        {
            "bufferView" : 12,
            "componentType" : 5126,
            "count" : 30,
            "type" : "VEC4"
        },
        {
            "bufferView" : 13,
            "componentType" : 5126,
            "count" : 30,
            "type" : "VEC3"
        },
        {
            "bufferView" : 14,
            "componentType" : 5126,
            "count" : 30,
            "type" : "VEC3"
        },
        {
            "bufferView" : 15,
            "componentType" : 5126,
            "count" : 30,
            "type" : "VEC4"
        },
        {
            "bufferView" : 16,
            "componentType" : 5126,
            "count" : 30,
            "type" : "VEC3"
        },
        {
            "bufferView" : 17,
            "componentType" : 5126,
            "count" : 30,
            "type" : "VEC3"
        },
        {
            "bufferView" : 18,
            "componentType" : 5126,
            "count" : 30,
            "type" : "VEC4"
        },
        {
            "bufferView" : 19,
            "componentType" : 5126,
            "count" : 30,
            "type" : "VEC3"
        },
        {
            "bufferView" : 20,
            "componentType" : 5126,
            "count" : 30,
            "type" : "VEC3"
        },
        {
            "bufferView" : 21,
            "componentType" : 5126,
            "count" : 30,
            "type" : "VEC4"
        },
        {
            "bufferView" : 22,
            "componentType" : 5126,
            "count" : 30,
            "type" : "VEC3"
        },
        {
            "bufferView" : 23,
            "componentType" : 5126,
            "count" : 30,
            "type" : "VEC3"
        },
        {
            "bufferView" : 24,
            "componentType" : 5126,
            "count" : 30,
            "type" : "VEC4"
        },
        {
            "bufferView" : 25,
            "componentType" : 5126,
            "count" : 30,
            "type" : "VEC3"
        },
        {
            "bufferView" : 26,
            "componentType" : 5126,
            "count" : 30,
            "type" : "VEC3"
        },
        {
            "bufferView" : 27,
            "componentType" : 5126,
            "count" : 30,
            "type" : "VEC4"
        },
        {
            "bufferView" : 28,
            "componentType" : 5126,
            "count" : 30,
            "type" : "VEC3"
        },
        {
            "bufferView" : 29,
            "componentType" : 5126,
            "count" : 30,
            "type" : "VEC3"
        },
        {
            "bufferView" : 30,
            "componentType" : 5126,
            "count" : 30,
            "type" : "VEC4"
        },
        {
            "bufferView" : 31,
            "componentType" : 5126,
            "count" : 30,
            "type" : "VEC3"
        },
        {
            "bufferView" : 32,
            "componentType" : 5126,
            "count" : 30,
            "type" : "VEC3"
        },
        {
            "bufferView" : 33,
            "componentType" : 5126,
            "count" : 30,
            "type" : "VEC4"
        },
        {
            "bufferView" : 34,
            "componentType" : 5126,
            "count" : 30,
            "type" : "VEC3"
        }
    ],
    "bufferViews" : [
        {
            "buffer" : 0,
            "byteLength" : 6132,
            "byteOffset" : 0
        },
        {
            "buffer" : 0,
            "byteLength" : 6132,
            "byteOffset" : 6132
        },
        {
            "buffer" : 0,
            "byteLength" : 4088,
            "byteOffset" : 12264
        },
        {
            "buffer" : 0,
            "byteLength" : 4088,
            "byteOffset" : 16352
        },
        {
            "buffer" : 0,
            "byteLength" : 8176,
            "byteOffset" : 20440
        },
        {
            "buffer" : 0,
            "byteLength" : 4920,
            "byteOffset" : 28616
        },
        {
            "buffer" : 0,
            "byteLength" : 576,
            "byteOffset" : 33536
        },
        {
            "buffer" : 0,
            "byteLength" : 120,
            "byteOffset" : 34112
        },
        {
            "buffer" : 0,
            "byteLength" : 360,
            "byteOffset" : 34232
        },
        {
            "buffer" : 0,
            "byteLength" : 480,
            "byteOffset" : 34592
        },
        {
            "buffer" : 0,
            "byteLength" : 360,
            "byteOffset" : 35072
        },
        {
            "buffer" : 0,
            "byteLength" : 360,
            "byteOffset" : 35432
        },
        {
            "buffer" : 0,
            "byteLength" : 480,
            "byteOffset" : 35792
        },
        {
            "buffer" : 0,
            "byteLength" : 360,
            "byteOffset" : 36272
        },
        {
            "buffer" : 0,
            "byteLength" : 360,
            "byteOffset" : 36632
        },
        {
            "buffer" : 0,
            "byteLength" : 480,
            "byteOffset" : 36992
        },
        {
            "buffer" : 0,
            "byteLength" : 360,
            "byteOffset" : 37472
        },
        {
            "buffer" : 0,
            "byteLength" : 360,
            "byteOffset" : 37832
        },
        {
            "buffer" : 0,
            "byteLength" : 480,
            "byteOffset" : 38192
        },
        {
            "buffer" : 0,
            "byteLength" : 360,
            "byteOffset" : 38672
        },
        {
            "buffer" : 0,
            "byteLength" : 360,
            "byteOffset" : 39032
        },
        {
            "buffer" : 0,
            "byteLength" : 480,
            "byteOffset" : 39392
        },
        {
            "buffer" : 0,
            "byteLength" : 360,
            "byteOffset" : 39872
        },
        {
            "buffer" : 0,
            "byteLength" : 360,
            "byteOffset" : 40232
        },
        {
            "buffer" : 0,
            "byteLength" : 480,
            "byteOffset" : 40592
        },
        {
            "buffer" : 0,
            "byteLength" : 360,
            "byteOffset" : 41072
        },
        {
            "buffer" : 0,
            "byteLength" : 360,
            "byteOffset" : 41432
        },
        {
            "buffer" : 0,
            "byteLength" : 480,
            "byteOffset" : 41792
        },
        {
            "buffer" : 0,
            "byteLength" : 360,
            "byteOffset" : 42272
        },
        {
            "buffer" : 0,
            "byteLength" : 360,
            "byteOffset" : 42632
        },
        {
            "buffer" : 0,
            "byteLength" : 480,
            "byteOffset" : 42992
        },
        {
            "buffer" : 0,
            "byteLength" : 360,
            "byteOffset" : 43472
        },
        {
            "buffer" : 0,
            "byteLength" : 360,
            "byteOffset" : 43832
        },
        {
            "buffer" : 0,
            "byteLength" : 480,
            "byteOffset" : 44192
        },
        {
            "buffer" : 0,
            "byteLength" : 360,
            "byteOffset" : 44672
        }
    ],
    "buffers" : [
        {
            "byteLength" : 45032,
            "uri" : "falito.bin"
        }
    ]
}
