{
    "asset" : {
        "generator" : "Khronos glTF Blender I/O v0.9.36",
        "version" : "2.0"
    },
    "scene" : 0,
    "scenes" : [
        {
            "name" : "Scene",
            "nodes" : [
                0
            ]
        }
    ],
    "nodes" : [
        {
            "mesh" : 0,
            "name" : "Suzanne",
            "translation" : [
                -0.1467204988002777,
                -0.05037089064717293,
                0.0768284797668457
            ]
        }
    ],
    "materials" : [
        {
            "doubleSided" : true,
            "name" : "skinMat",
            "pbrMetallicRoughness" : {
                "baseColorFactor" : [
                    0.800000011920929,
                    0.800000011920929,
                    0.800000011920929,
                    1
                ],
                "metallicFactor" : 0,
                "roughnessFactor" : 0.5
            }
        },
        {
            "doubleSided" : true,
            "name" : "eyesMat",
            "pbrMetallicRoughness" : {
                "baseColorFactor" : [
                    0.800000011920929,
                    0.800000011920929,
                    0.800000011920929,
                    1
                ],
                "metallicFactor" : 0,
                "roughnessFactor" : 0.5
            }
        },
        {
            "doubleSided" : true,
            "name" : "earsMat",
            "pbrMetallicRoughness" : {
                "baseColorFactor" : [
                    0.800000011920929,
                    0.800000011920929,
                    0.800000011920929,
                    1
                ],
                "metallicFactor" : 0,
                "roughnessFactor" : 0.5
            }
        },
        {
            "doubleSided" : true,
            "name" : "eyesCenterMat",
            "pbrMetallicRoughness" : {
                "baseColorFactor" : [
                    0.800000011920929,
                    0.800000011920929,
                    0.800000011920929,
                    1
                ],
                "metallicFactor" : 0,
                "roughnessFactor" : 0.5
            }
        },
        {
            "doubleSided" : true,
            "name" : "mouthMat",
            "pbrMetallicRoughness" : {
                "baseColorFactor" : [
                    0.800000011920929,
                    0.800000011920929,
                    0.800000011920929,
                    1
                ],
                "metallicFactor" : 0,
                "roughnessFactor" : 0.5
            }
        },
        {
            "doubleSided" : true,
            "name" : "nouseMat",
            "pbrMetallicRoughness" : {
                "baseColorFactor" : [
                    0.800000011920929,
                    0.800000011920929,
                    0.800000011920929,
                    1
                ],
                "metallicFactor" : 0,
                "roughnessFactor" : 0.5
            }
        }
    ],
    "meshes" : [
        {
            "name" : "Suzanne",
            "primitives" : [
                {
                    "attributes" : {
                        "POSITION" : 0,
                        "NORMAL" : 1,
                        "TEXCOORD_0" : 2
                    },
                    "indices" : 3,
                    "material" : 0
                },
                {
                    "attributes" : {
                        "POSITION" : 4,
                        "NORMAL" : 5,
                        "TEXCOORD_0" : 6
                    },
                    "indices" : 7,
                    "material" : 1
                },
                {
                    "attributes" : {
                        "POSITION" : 8,
                        "NORMAL" : 9,
                        "TEXCOORD_0" : 10
                    },
                    "indices" : 11,
                    "material" : 2
                },
                {
                    "attributes" : {
                        "POSITION" : 12,
                        "NORMAL" : 13,
                        "TEXCOORD_0" : 14
                    },
                    "indices" : 15,
                    "material" : 3
                },
                {
                    "attributes" : {
                        "POSITION" : 16,
                        "NORMAL" : 17,
                        "TEXCOORD_0" : 18
                    },
                    "indices" : 19,
                    "material" : 4
                },
                {
                    "attributes" : {
                        "POSITION" : 20,
                        "NORMAL" : 21,
                        "TEXCOORD_0" : 22
                    },
                    "indices" : 23,
                    "material" : 5
                }
            ]
        }
    ],
    "accessors" : [
        {
            "bufferView" : 0,
            "componentType" : 5126,
            "count" : 1632,
            "max" : [
                1.3671875,
                0.984375,
                0.8515625
            ],
            "min" : [
                -1.3671875,
                -0.984375,
                -0.8515625
            ],
            "type" : "VEC3"
        },
        {
            "bufferView" : 1,
            "componentType" : 5126,
            "count" : 1632,
            "type" : "VEC3"
        },
        {
            "bufferView" : 2,
            "componentType" : 5126,
            "count" : 1632,
            "type" : "VEC2"
        },
        {
            "bufferView" : 3,
            "componentType" : 5123,
            "count" : 2430,
            "type" : "SCALAR"
        },
        {
            "bufferView" : 4,
            "componentType" : 5126,
            "count" : 68,
            "max" : [
                0.625,
                0.453125,
                0.796875
            ],
            "min" : [
                -0.5625,
                0.04167856648564339,
                0.5625
            ],
            "type" : "VEC3"
        },
        {
            "bufferView" : 5,
            "componentType" : 5126,
            "count" : 68,
            "type" : "VEC3"
        },
        {
            "bufferView" : 6,
            "componentType" : 5126,
            "count" : 68,
            "type" : "VEC2"
        },
        {
            "bufferView" : 7,
            "componentType" : 5123,
            "count" : 102,
            "type" : "SCALAR"
        },
        {
            "bufferView" : 8,
            "componentType" : 5126,
            "count" : 110,
            "max" : [
                1.2578125,
                0.34375,
                -0.265625
            ],
            "min" : [
                -1.2578125,
                -0.015625,
                -0.4921875
            ],
            "type" : "VEC3"
        },
        {
            "bufferView" : 9,
            "componentType" : 5126,
            "count" : 110,
            "type" : "VEC3"
        },
        {
            "bufferView" : 10,
            "componentType" : 5126,
            "count" : 110,
            "type" : "VEC2"
        },
        {
            "bufferView" : 11,
            "componentType" : 5123,
            "count" : 162,
            "type" : "SCALAR"
        },
        {
            "bufferView" : 12,
            "componentType" : 5126,
            "count" : 48,
            "max" : [
                0.4765625,
                0.375,
                0.828125
            ],
            "min" : [
                -0.4765625,
                0.1171875,
                0.7734375
            ],
            "type" : "VEC3"
        },
        {
            "bufferView" : 13,
            "componentType" : 5126,
            "count" : 48,
            "type" : "VEC3"
        },
        {
            "bufferView" : 14,
            "componentType" : 5126,
            "count" : 48,
            "type" : "VEC2"
        },
        {
            "bufferView" : 15,
            "componentType" : 5123,
            "count" : 48,
            "type" : "SCALAR"
        },
        {
            "bufferView" : 16,
            "componentType" : 5126,
            "count" : 14,
            "max" : [
                0.09375,
                -0.75,
                0.6640625
            ],
            "min" : [
                -0.09375,
                -0.859375,
                0.6328125
            ],
            "type" : "VEC3"
        },
        {
            "bufferView" : 17,
            "componentType" : 5126,
            "count" : 14,
            "type" : "VEC3"
        },
        {
            "bufferView" : 18,
            "componentType" : 5126,
            "count" : 14,
            "type" : "VEC2"
        },
        {
            "bufferView" : 19,
            "componentType" : 5123,
            "count" : 18,
            "type" : "SCALAR"
        },
        {
            "bufferView" : 20,
            "componentType" : 5126,
            "count" : 96,
            "max" : [
                0.1328125,
                -0.125,
                0.828125
            ],
            "min" : [
                -0.1328125,
                -0.328125,
                0.7421875
            ],
            "type" : "VEC3"
        },
        {
            "bufferView" : 21,
            "componentType" : 5126,
            "count" : 96,
            "type" : "VEC3"
        },
        {
            "bufferView" : 22,
            "componentType" : 5126,
            "count" : 96,
            "type" : "VEC2"
        },
        {
            "bufferView" : 23,
            "componentType" : 5123,
            "count" : 144,
            "type" : "SCALAR"
        }
    ],
    "bufferViews" : [
        {
            "buffer" : 0,
            "byteLength" : 19584,
            "byteOffset" : 0
        },
        {
            "buffer" : 0,
            "byteLength" : 19584,
            "byteOffset" : 19584
        },
        {
            "buffer" : 0,
            "byteLength" : 13056,
            "byteOffset" : 39168
        },
        {
            "buffer" : 0,
            "byteLength" : 4860,
            "byteOffset" : 52224
        },
        {
            "buffer" : 0,
            "byteLength" : 816,
            "byteOffset" : 57084
        },
        {
            "buffer" : 0,
            "byteLength" : 816,
            "byteOffset" : 57900
        },
        {
            "buffer" : 0,
            "byteLength" : 544,
            "byteOffset" : 58716
        },
        {
            "buffer" : 0,
            "byteLength" : 204,
            "byteOffset" : 59260
        },
        {
            "buffer" : 0,
            "byteLength" : 1320,
            "byteOffset" : 59464
        },
        {
            "buffer" : 0,
            "byteLength" : 1320,
            "byteOffset" : 60784
        },
        {
            "buffer" : 0,
            "byteLength" : 880,
            "byteOffset" : 62104
        },
        {
            "buffer" : 0,
            "byteLength" : 324,
            "byteOffset" : 62984
        },
        {
            "buffer" : 0,
            "byteLength" : 576,
            "byteOffset" : 63308
        },
        {
            "buffer" : 0,
            "byteLength" : 576,
            "byteOffset" : 63884
        },
        {
            "buffer" : 0,
            "byteLength" : 384,
            "byteOffset" : 64460
        },
        {
            "buffer" : 0,
            "byteLength" : 96,
            "byteOffset" : 64844
        },
        {
            "buffer" : 0,
            "byteLength" : 168,
            "byteOffset" : 64940
        },
        {
            "buffer" : 0,
            "byteLength" : 168,
            "byteOffset" : 65108
        },
        {
            "buffer" : 0,
            "byteLength" : 112,
            "byteOffset" : 65276
        },
        {
            "buffer" : 0,
            "byteLength" : 36,
            "byteOffset" : 65388
        },
        {
            "buffer" : 0,
            "byteLength" : 1152,
            "byteOffset" : 65424
        },
        {
            "buffer" : 0,
            "byteLength" : 1152,
            "byteOffset" : 66576
        },
        {
            "buffer" : 0,
            "byteLength" : 768,
            "byteOffset" : 67728
        },
        {
            "buffer" : 0,
            "byteLength" : 288,
            "byteOffset" : 68496
        }
    ],
    "buffers" : [
        {
            "byteLength" : 68784,
            "uri" : "monkeyHead.bin"
        }
    ]
}
